<!-- Copyright (c) 2026 Duong Dieu Phap -->
<svg xmlns="http://www.w3.org/2000/svg" width="48" height="48" fill="none" viewBox="0 0 48 48"><g clip-path="url(#a)"><g filter="url(#b)"><path fill="url(#c)" d="M0 19.162C0 3.382 3.382 0 19.162 0h9.676C44.618 0 48 3.382 48 19.162v9.676C48 44.618 44.618 48 28.838 48h-9.676C3.382 48 0 44.618 0 28.838z"/><path fill="url(#d)" d="M0 19.162C0 3.382 3.382 0 19.162 0h9.676C44.618 0 48 3.382 48 19.162v9.676C48 44.618 44.618 48 28.838 48h-9.676C3.382 48 0 44.618 0 28.838z"/></g><path fill="url(#e)" d="M0 19.162C0 3.382 3.382 0 19.162 0h9.676C44.618 0 48 3.382 48 19.162v9.676C48 44.618 44.618 48 28.838 48h-9.676C3.382 48 0 44.618 0 28.838z"/><path fill="url(#f)" d="M0 19.162C0 3.382 3.382 0 19.162 0h9.676C44.618 0 48 3.382 48 19.162v9.676C48 44.618 44.618 48 28.838 48h-9.676C3.382 48 0 44.618 0 28.838z"/><g filter="url(#g)"><path stroke="url(#h)" stroke-linecap="round" stroke-linejoin="round" stroke-width="3.5" d="M21.2 36.25q.108-.523.323-1a5 5 0 0 1 1.033-1.5 5.14 5.14 0 0 1 3.644-1.5c1.427 0 2.718.574 3.644 1.5.431.431.783.939 1.034 1.5q.213.477.322 1"/><rect width="9.5" height="3.5" x="25.2" y="15.5" fill="url(#i)" rx="1.75"/><circle cx="26" cy="22.5" r="5.25" stroke="url(#j)" stroke-width="3.5"/><rect width="3.5" height="14" x="13" y="15.5" fill="url(#k)" rx="1.75"/><circle cx="14.75" cy="12.75" r="1.75" fill="url(#l)"/></g><g filter="url(#m)"><path fill="url(#n)" d="M38.136 4.484a1 1 0 0 1 1.728 0l.854 1.465a1 1 0 0 0 .652.475l1.658.359a1 1 0 0 1 .534 1.643l-1.13 1.265a1 1 0 0 0-.25.767l.172 1.688a1 1 0 0 1-1.398 1.016l-1.553-.684a1 1 0 0 0-.806 0l-1.553.684a1 1 0 0 1-1.398-1.016l.171-1.688a1 1 0 0 0-.25-.767l-1.13-1.265a1 1 0 0 1 .535-1.643l1.658-.36a1 1 0 0 0 .652-.474z"/></g></g><defs><radialGradient id="c" cx="0" cy="0" r="1" gradientTransform="matrix(24.8182 40.5487 -41.9255 41.4378 17.454 14.73)" gradientUnits="userSpaceOnUse"><stop stop-color="#0096d8"/><stop offset="1" stop-color="#0067c6"/></radialGradient><radialGradient id="e" cx="0" cy="0" r="1" gradientTransform="matrix(23.2421 25.2632 -20.6275 30.044 6.316 4.295)" gradientUnits="userSpaceOnUse"><stop stop-color="#008bcb"/><stop offset="1" stop-color="#50caff" stop-opacity="0"/></radialGradient><radialGradient id="f" cx="0" cy="0" r="1" gradientTransform="matrix(-45.3818 -45.9872 31.5563 -49.601 50.182 51.292)" gradientUnits="userSpaceOnUse"><stop offset=".876" stop-color="#0089c6" stop-opacity="0"/><stop offset="1" stop-color="#0096da"/></radialGradient><radialGradient id="h" cx="0" cy="0" r="1" gradientTransform="matrix(-7.885 5 -5.53004 -8.46742 28.52 31.75)" gradientUnits="userSpaceOnUse"><stop offset=".254" stop-color="#fff"/><stop offset=".726" stop-color="#a7d5f7"/></radialGradient><radialGradient id="i" cx="0" cy="0" r="1" gradientTransform="matrix(-5.08929 2.62406 -7.125 -1.87433 31.477 16.312)" gradientUnits="userSpaceOnUse"><stop offset=".213" stop-color="#fff"/><stop offset=".743" stop-color="#bde3ff"/></radialGradient><radialGradient id="j" cx="0" cy="0" r="1" gradientTransform="rotate(119.539 9.272 17.191)scale(12.0687)" gradientUnits="userSpaceOnUse"><stop offset=".143" stop-color="#fff"/><stop offset=".558" stop-color="#a7d5f7"/></radialGradient><radialGradient id="k" cx="0" cy="0" r="1" gradientTransform="matrix(-1.875 10.4963 -2.625 -7.49732 15.313 18.749)" gradientUnits="userSpaceOnUse"><stop offset=".213" stop-color="#fff"/><stop offset=".743" stop-color="#bde3ff"/></radialGradient><radialGradient id="l" cx="0" cy="0" r="1" gradientTransform="matrix(-1.875 2.62406 -2.625 -1.87433 15.313 11.812)" gradientUnits="userSpaceOnUse"><stop offset=".213" stop-color="#fff"/><stop offset=".743" stop-color="#bde3ff"/></radialGradient><radialGradient id="n" cx="0" cy="0" r="1" gradientTransform="rotate(126.87 18.5 13.625)scale(7.5)" gradientUnits="userSpaceOnUse"><stop stop-color="#fff"/><stop offset=".553" stop-color="#a7d5f7"/></radialGradient><filter id="b" width="48.5" height="48.5" x="-.5" y="-.5" color-interpolation-filters="sRGB" filterUnits="userSpaceOnUse"><feFlood flood-opacity="0" result="BackgroundImageFix"/><feBlend in="SourceGraphic" in2="BackgroundImageFix" result="shape"/><feColorMatrix in="SourceAlpha" result="hardAlpha" values="0 0 0 0 0 0 0 0 0 0 0 0 0 0 0 0 0 0 127 0"/><feOffset dx="-.5" dy="-.5"/><feGaussianBlur stdDeviation="1"/><feComposite in2="hardAlpha" k2="-1" k3="1" operator="arithmetic"/><feColorMatrix values="0 0 0 0 0 0 0 0 0 0.529412 0 0 0 0 0.768627 0 0 0 1 0"/><feBlend in2="shape" result="effect1_innerShadow_811_624"/><feColorMatrix in="SourceAlpha" result="hardAlpha" values="0 0 0 0 0 0 0 0 0 0 0 0 0 0 0 0 0 0 127 0"/><feOffset dx="-.25"/><feGaussianBlur stdDeviation=".25"/><feComposite in2="hardAlpha" k2="-1" k3="1" operator="arithmetic"/><feColorMatrix values="0 0 0 0 0.164706 0 0 0 0 0.411765 0 0 0 0 0.823529 0 0 0 1 0"/><feBlend in2="effect1_innerShadow_811_624" result="effect2_innerShadow_811_624"/></filter><filter id="g" width="61.7" height="67" x="-7" y="-9" color-interpolation-filters="sRGB" filterUnits="userSpaceOnUse"><feFlood flood-opacity="0" result="BackgroundImageFix"/><feColorMatrix in="SourceAlpha" result="hardAlpha" values="0 0 0 0 0 0 0 0 0 0 0 0 0 0 0 0 0 0 127 0"/><feOffset/><feGaussianBlur stdDeviation="10"/><feComposite in2="hardAlpha" operator="out"/><feColorMatrix values="0 0 0 0 0 0 0 0 0 0 0 0 0 0 0 0 0 0 0.3 0"/><feBlend in2="BackgroundImageFix" result="effect1_dropShadow_811_624"/><feBlend in="SourceGraphic" in2="effect1_dropShadow_811_624" result="shape"/><feColorMatrix in="SourceAlpha" result="hardAlpha" values="0 0 0 0 0 0 0 0 0 0 0 0 0 0 0 0 0 0 127 0"/><feOffset dx="1" dy="-1"/><feGaussianBlur stdDeviation="1.5"/><feComposite in2="hardAlpha" k2="-1" k3="1" operator="arithmetic"/><feColorMatrix values="0 0 0 0 0.879238 0 0 0 0 0.920128 0 0 0 0 0.938613 0 0 0 1 0"/><feBlend in2="shape" result="effect2_innerShadow_811_624"/></filter><filter id="m" width="17.635" height="17.261" x="30.183" y=".987" color-interpolation-filters="sRGB" filterUnits="userSpaceOnUse"><feFlood flood-opacity="0" result="BackgroundImageFix"/><feColorMatrix in="SourceAlpha" result="hardAlpha" values="0 0 0 0 0 0 0 0 0 0 0 0 0 0 0 0 0 0 127 0"/><feOffset dy="1"/><feGaussianBlur stdDeviation="2"/><feComposite in2="hardAlpha" operator="out"/><feColorMatrix values="0 0 0 0 0 0 0 0 0 0 0 0 0 0 0 0 0 0 0.1 0"/><feBlend in2="BackgroundImageFix" result="effect1_dropShadow_811_624"/><feBlend in="SourceGraphic" in2="effect1_dropShadow_811_624" result="shape"/></filter><linearGradient id="d" x1="24" x2="24" y1="51.812" y2="38.123" gradientUnits="userSpaceOnUse"><stop stop-color="#0067c6"/><stop offset="1" stop-color="#508bff" stop-opacity="0"/></linearGradient><clipPath id="a"><path fill="#fff" d="M0 0h48v48H0z"/></clipPath></defs></svg>
